<?xml version="1.0" encoding="UTF-8"?>
<svg width="52px" height="26px" viewBox="0 0 52 26" version="1.1" xmlns="http://www.w3.org/2000/svg" xmlns:xlink="http://www.w3.org/1999/xlink">
    <!-- Generator: Sketch 43.1 (39012) - http://www.bohemiancoding.com/sketch -->
    <title>wiggle-bg</title>
    <desc>Created with Sketch.</desc>
    <defs></defs>
    <g id="Symbols" stroke="none" stroke-width="1" fill="none" fill-rule="evenodd" opacity="0.2">
        <g id="wiggle-bg" fill-rule="nonzero" fill="#4D4049">
            <g id="wiggle">
                <g id="Group">
                    <g id="Shape">
                        <path d="M10,10 C10,7.79 8.21,6 6,6 C2.686,6 0,3.314 0,0 L2,0 C2,2.21 3.79,4 6,4 C9.314,4 12,6.686 12,10 C12,12.21 13.79,14 16,14 C19.314,14 22,16.686 22,20 C22,22.21 23.79,24 26,24 L26,26 C22.686,26 20,23.314 20,20 C20,17.79 18.21,16 16,16 C12.686,16 10,13.314 10,10 Z M35.464,8.05 L43.95,16.536 L42.536,17.95 L34.05,9.464 L35.464,8.05 L35.464,8.05 Z"></path>
                    </g>
                </g>
            </g>
        </g>
    </g>
</svg>